PathFileType	4	(X/Y/Z)	C:\Users\Basilio\Documents\Thesis Gigler\squatting_fais\c3dfiles\038\SLS_front_pre2\markers_experimental.trc
DataRate	CameraRate	NumFrames	NumMarkers	Units	OrigDataRate	OrigDataStartFrame	OrigNumFrames
200.000000	200.000000	4	61	mm	200.000000	1026	1369
Frame#	Time	FHD			LBHD			RBHD			C7			T10			CLAV			LSHO			LUUPA			LMUPA			LDUPA			LLEP			LMEP			LUL			LRFIN			RSHO			RUPA1			RMUPA			RDUPA			RLEP			RMEP			RRAD			RUL			RUFIN			LASI			RASI			USACR			LSACR			RSACR			LTHI1			LTHI2			LTHI3			LTHI4			LLFC			LMFC			LTIB1			LTIB2			LTIB3			LTIB4			LLMAL			LMMAL			LHEE			LMT1			LMT2			LMT5			RTHI			RTHI2			RTHI3			RTHI4			RLFC			RMFC			RTIB1			RTIB2			RTIB3			RTIB4			RLMAL			RMMAL			RHEE			RMT1			RMT2			RMT5			LRAD			
		X1	Y1	Z1	X2	Y2	Z2	X3	Y3	Z3	X4	Y4	Z4	X5	Y5	Z5	X6	Y6	Z6	X7	Y7	Z7	X8	Y8	Z8	X9	Y9	Z9	X10	Y10	Z10	X11	Y11	Z11	X12	Y12	Z12	X13	Y13	Z13	X14	Y14	Z14	X15	Y15	Z15	X16	Y16	Z16	X17	Y17	Z17	X18	Y18	Z18	X19	Y19	Z19	X20	Y20	Z20	X21	Y21	Z21	X22	Y22	Z22	X23	Y23	Z23	X24	Y24	Z24	X25	Y25	Z25	X26	Y26	Z26	X27	Y27	Z27	X28	Y28	Z28	X29	Y29	Z29	X30	Y30	Z30	X31	Y31	Z31	X32	Y32	Z32	X33	Y33	Z33	X34	Y34	Z34	X35	Y35	Z35	X36	Y36	Z36	X37	Y37	Z37	X38	Y38	Z38	X39	Y39	Z39	X40	Y40	Z40	X41	Y41	Z41	X42	Y42	Z42	X43	Y43	Z43	X44	Y44	Z44	X45	Y45	Z45	X46	Y46	Z46	X47	Y47	Z47	X48	Y48	Z48	X49	Y49	Z49	X50	Y50	Z50	X51	Y51	Z51	X52	Y52	Z52	X53	Y53	Z53	X54	Y54	Z54	X55	Y55	Z55	X56	Y56	Z56	X57	Y57	Z57	X58	Y58	Z58	X59	Y59	Z59	X60	Y60	Z60	X61	Y61	Z61	

1027	5.13	-238.0775299072266	1681.327758789063	-1096.70654296875	-390.4281311035157	1623.274291992188	-1160.092651367188	-384.8443298339845	1611.79638671875	-1014.676574707031	-439.245330810547	1454.920654296875	-1077.494262695313	-462.6662597656251	1175.603515625	-1051.4052734375	-294.9434814453126	1424.255126953125	-1089.182983398438	-362.7180786132813	1466.082397460938	-1225.182495117188	-202.8950195312501	1413.7841796875	-1359.56982421875	-175.3782806396485	1446.648803710938	-1331.586669921875	-134.1763000488282	1422.539916992188	-1367.53271484375	-72.67063140869142	1426.369873046875	-1368.514038085938	-60.70184707641603	1351.067138671875	-1348.998413085938	223.9903869628907	1439.56494140625	-1341.630615234375	287.4055480957032	1454.505126953125	-1251.922119140625	-338.0996398925782	1468.090576171875	-950.697692871094	-179.2603454589844	1449.755737304688	-835.394470214844	-144.4519500732422	1455.502197265625	-868.5964355468752	-111.3141174316407	1444.91357421875	-818.9349365234377	-39.44715118408204	1440.298828125	-808.6148071289065	-33.85578918457032	1362.410034179688	-824.9287109375002	242.5748443603516	1431.5224609375	-859.9763793945315	245.9014739990235	1446.891967773438	-791.763366699219	322.7947692871094	1465.665771484375	-858.5141601562502	-297.9187011718751	976.8338012695315	-1140.874145507813	-330.7722167968751	1011.181335449219	-895.8439941406252	-481.1433105468751	1024.863037109375	-1036.490966796875	-490.1622619628907	992.0713500976565	-1062.612060546875	-495.199920654297	996.624938964844	-1005.870971679688	-230.1806793212891	676.3350830078126	-1185.453735351563	-171.9299926757813	613.7355346679689	-1177.645263671875	-131.5578765869141	635.4877319335939	-1155.520263671875	-180.9994659423828	557.5554809570314	-1158.78125	-163.6028594970703	503.3502502441407	-1147.76806640625	-158.2053985595703	505.1755371093751	-1032.799072265625	-177.2078857421875	323.1795654296876	-1058.67236328125	-231.4874114990235	291.5700988769532	-1121.526123046875	-197.6784973144532	277.3133544921876	-1090.4931640625	-238.3830871582032	211.8223266601563	-1055.442626953125	-361.3764343261719	112.7659378051758	-1071.362060546875	-321.9495239257813	124.9297103881836	-997.656188964844	-416.4874267578126	93.31243896484376	-1015.218627929688	-215.0813446044922	43.5344467163086	-1015.826232910156	-208.6196594238282	46.79167175292969	-1066.484741210938	-255.942611694336	35.45185852050782	-1111.021606445313	-240.9111328125001	780.3135375976565	-831.7236328125002	-176.3241271972657	763.5272827148439	-837.538269042969	-152.8545837402344	786.1335449218752	-845.0803833007815	-146.6814727783203	683.3970336914064	-850.0721435546877	-47.93468093872071	590.7844238281251	-863.8398437500002	-54.63871383666994	587.7115478515626	-984.4653320312502	91.46286773681642	474.646209716797	-893.494567871094	77.74913024902345	364.8786315917969	-855.3833618164065	112.9688186645508	394.2803649902345	-867.0813598632815	150.6878967285157	360.3502807617188	-896.9055175781252	173.9539337158203	222.3578338623047	-864.567077636719	190.4910736083985	248.6798400878907	-946.2651977539065	164.1753692626953	144.4137268066407	-928.028991699219	323.4602966308594	291.5706176757813	-918.6417236328127	316.8266906738282	295.8709106445313	-871.2838134765627	300.9352416992188	251.1641998291016	-827.5921630859377	nan	nan	nan	
1028	5.135	-238.6340332031251	1683.948486328125	-1096.488525390625	-390.8608703613282	1625.679931640625	-1159.8583984375	-385.2644653320314	1614.459838867188	-1014.715087890625	-439.4270019531251	1457.16796875	-1077.388793945313	-462.8228454589845	1177.700561523438	-1051.601928710938	-295.1174011230469	1426.732177734375	-1089.014892578125	-362.8753967285157	1468.577026367188	-1225.138549804688	-202.9466247558594	1415.770629882813	-1359.339111328125	-175.4542236328125	1448.587524414063	-1331.238037109375	-133.6944732666016	1424.150634765625	-1367.315673828125	-72.62468719482423	1427.999389648438	-1368.182373046875	-60.90034484863283	1353.070556640625	-1348.649291992188	223.9321594238282	1440.92138671875	-1341.01708984375	287.2866821289063	1455.654052734375	-1251.2294921875	-338.3671569824219	1470.423095703125	-950.5277099609377	-179.3548431396485	1451.874877929688	-835.1071777343752	-144.7344360351563	1457.427612304688	-868.381530761719	-111.7713699340821	1446.85205078125	-818.734558105469	-39.44240188598634	1441.968383789063	-808.4190673828127	-34.23409652709962	1364.281616210938	-824.6914672851565	242.1528625488282	1432.695556640625	-859.9176025390627	245.6748352050782	1448.284545898438	-791.6736450195315	322.6153259277344	1466.79443359375	-858.3121337890627	-297.6827697753907	978.7203369140627	-1140.90283203125	-330.5218200683594	1013.411315917969	-895.9182739257815	-480.9306945800782	1027.41650390625	-1036.494995117188	-489.2077636718751	994.691589355469	-1062.424194335938	-494.999969482422	999.130798339844	-1005.923583984375	-231.4032287597657	677.6832275390626	-1185.20068359375	-173.2723236083985	614.9438476562501	-1177.326293945313	-132.9453125	636.6749267578126	-1155.118530273438	-182.85498046875	559.0108032226564	-1158.457153320313	-165.7350158691407	504.6973571777345	-1147.5576171875	-159.93408203125	506.0646057128907	-1032.607788085938	-178.3888244628907	324.1080322265626	-1058.565795898438	-232.5653991699219	292.3529357910157	-1121.371215820313	-199.1079864501954	278.4424743652344	-1090.4609375	-239.0452575683594	212.0489501953126	-1055.328979492188	-361.4055175781251	112.7724761962891	-1071.2880859375	-322.0960083007813	125.0099716186524	-997.6425781250002	-416.4463195800782	93.23824310302736	-1015.240051269531	-215.0388488769532	43.4806251525879	-1015.832946777344	-208.5908813476563	46.84645080566407	-1066.477416992188	-255.9866638183594	35.44469451904298	-1110.935791015625	-240.6159057617188	782.7407836914065	-830.9531860351565	-176.4337005615235	765.5516357421876	-837.2039794921877	-153.0262451171875	788.0981445312502	-845.0196533203127	-147.3681793212891	685.2404174804689	-849.9211425781252	-48.81483459472658	592.2525024414064	-863.8323974609377	-55.66914367675783	588.6958007812501	-984.3931884765627	90.25020599365236	475.5282592773439	-893.6542968750002	76.00704193115236	365.5682067871094	-855.0515747070315	111.3698654174805	395.0718688964845	-866.7680664062502	148.6407928466797	360.5739440917969	-897.0220336914065	171.3656768798828	222.9218444824219	-864.1314086914065	187.9277801513672	248.7667388916016	-946.040710449219	161.6465301513672	144.6864929199219	-927.874694824219	321.6875305175782	291.8996276855469	-918.507751464844	313.6301269531251	296.1416320800782	-871.229919433594	298.8063659667969	251.0186157226563	-827.473327636719	nan	nan	nan	
1029	5.14	-239.1474151611329	1686.090698242188	-1096.188720703125	-391.1542358398439	1628.0341796875	-1159.614990234375	-385.6953125000001	1616.901245117188	-1014.519287109375	-439.6245117187501	1459.41845703125	-1077.322387695313	-462.4027404785157	1179.919799804688	-1051.589111328125	-295.3820495605469	1429.152954101563	-1088.856567382813	-363.0357055664063	1470.942626953125	-1224.906372070313	-203.0260925292969	1417.92041015625	-1359.094116210938	-175.4488372802735	1450.438842773438	-1331.015502929688	-134.2660064697266	1426.326049804688	-1367.056030273438	-72.17781829833986	1429.583374023438	-1367.862060546875	-61.09133148193361	1354.708374023438	-1348.13671875	223.8545989990235	1442.281127929688	-1340.3232421875	286.8135986328126	1457.160522460938	-1250.540405273438	-338.6078186035157	1472.612915039063	-950.3481445312502	-179.6680755615235	1453.93798828125	-834.8159790039065	-144.975326538086	1459.412231445313	-868.2423095703127	-111.9640808105469	1448.666381835938	-818.436462402344	-39.78076171875001	1443.672241210938	-808.2534790039065	-34.63985824584962	1365.870239257813	-824.4477539062502	241.8579559326172	1434.316040039063	-859.9067993164065	245.5105743408204	1449.540649414063	-791.6254882812502	322.3349304199219	1467.944091796875	-858.3560791015627	-297.5851135253907	980.9364013671877	-1141.018798828125	-330.0741577148438	1015.77880859375	-895.8347167968752	-480.686981201172	1029.4443359375	-1036.572387695313	-488.7203063964845	996.7559204101565	-1062.458251953125	-494.7156982421876	1001.769348144531	-1005.918151855469	-232.6518249511719	679.2585449218751	-1184.91162109375	-174.8026580810547	616.1828002929689	-1176.949829101563	-134.1316375732422	637.5874023437501	-1154.959106445313	-184.5463104248047	560.1435546875001	-1158.308715820313	-167.6499786376953	505.826385498047	-1147.10791015625	-161.86865234375	507.2018127441407	-1032.346435546875	-179.7203521728516	324.9715270996094	-1058.331909179688	-233.4840850830079	293.0247192382813	-1121.26953125	-199.6051788330079	279.0493469238282	-1090.355102539063	-239.6872253417969	212.7150421142579	-1055.427978515625	-361.5919494628907	112.8995132446289	-1071.220825195313	-322.2853698730469	125.0067138671875	-997.5959472656252	-416.4737854003907	93.24755859375001	-1015.208618164063	-215.1308593750001	43.61581420898438	-1015.810607910156	-208.6094970703126	46.85025787353516	-1066.468505859375	-255.9144897460938	35.46197509765626	-1110.953491210938	-241.1939697265626	784.5640258789065	-831.6235351562502	-176.7203369140625	767.0567626953126	-837.4824218750002	-153.1521148681641	789.6304931640627	-845.2615356445315	-147.7303924560547	686.8626708984376	-849.956970214844	-49.76461029052736	593.3286132812501	-863.8018798828127	-56.88421630859376	589.9218750000001	-984.311462402344	88.84991455078126	476.1198730468751	-893.6546020507815	74.03183746337892	366.5952453613282	-854.8662109375002	109.6187973022461	395.8664855957032	-866.7595214843752	146.7784423828125	361.1483154296876	-896.8782958984377	169.1454010009766	223.3980865478516	-864.051940917969	185.85595703125	248.8656005859376	-945.6232910156252	158.6554870605469	144.950180053711	-927.1500244140627	319.1814575195313	291.9010925292969	-918.5916748046877	311.8603820800782	295.8195800781251	-871.2253417968752	296.4194946289063	251.1008605957032	-827.160095214844	nan	nan	nan	
1030	5.145	-239.7288055419922	1688.713256835938	-1095.861938476563	-391.7461853027345	1630.37255859375	-1159.3603515625	-386.1952514648439	1619.198364257813	-1014.266357421875	-440.0428161621095	1461.606079101563	-1077.05810546875	-462.1966552734376	1182.166870117188	-1051.6640625	-295.8956604003907	1431.392822265625	-1088.493774414063	-362.9925842285157	1473.191162109375	-1224.846435546875	-203.0189666748047	1420.001220703125	-1358.874267578125	-175.6170806884766	1452.49072265625	-1330.670776367188	-133.8462066650391	1427.995971679688	-1366.770874023438	-72.72108459472658	1431.661499023438	-1367.541259765625	-61.19510650634767	1356.445556640625	-1347.91748046875	223.8322753906251	1443.405395507813	-1339.8134765625	286.6788635253907	1458.283203125	-1249.873291015625	-338.8082885742188	1474.870483398438	-950.207458496094	-180.0175933837891	1455.90283203125	-834.6190185546877	-145.3715515136719	1461.321655273438	-867.8646240234377	-112.3010864257813	1450.474609375	-818.386901855469	-39.98665237426759	1445.657470703125	-808.0147705078127	-35.05998611450196	1367.73779296875	-824.2092285156252	241.5256652832032	1435.502685546875	-859.6920166015627	245.2680053710938	1450.955932617188	-791.651550292969	322.0857543945313	1468.819091796875	-857.9205322265627	-297.4257812500001	982.869323730469	-1140.898315429688	-329.7218322753907	1017.928039550781	-895.8901367187502	-480.3559875488282	1031.74755859375	-1036.703979492188	-488.6186523437501	999.422302246094	-1062.402099609375	-494.5638427734376	1004.060913085938	-1006.002075195313	-233.5921936035157	680.6127929687501	-1184.775390625	-176.3720855712891	617.0419311523439	-1176.766357421875	-135.6433258056641	638.3465576171876	-1154.423950195313	-186.2826080322266	561.3117675781251	-1157.807861328125	-169.2410888671875	507.281707763672	-1146.69091796875	-163.8730010986328	508.3971252441407	-1031.854736328125	-180.7612762451172	325.9409484863282	-1058.302490234375	-234.3388671875001	294.3564453125001	-1121.007202148438	-200.8729858398438	280.6118469238282	-1090.02587890625	-240.3261108398438	213.4919433593751	-1055.210205078125	-361.6501159667969	112.8651504516602	-1071.157958984375	-322.4761352539063	125.0705795288086	-997.5742797851565	-416.5206604003907	93.24795532226564	-1015.145812988281	-215.0730133056641	43.47737503051759	-1015.81640625	-208.6031951904297	46.91346740722657	-1066.46533203125	-255.950912475586	35.53008270263673	-1110.953979492188	-240.7543334960938	786.957214355469	-830.8699340820315	-176.8292083740235	769.191833496094	-837.4946899414065	-153.2477722167969	791.5684814453127	-845.346130371094	-148.3046569824219	688.5515136718751	-849.9626464843752	-50.827205657959	595.0338745117189	-863.6403808593752	-57.92047500610353	591.0081787109376	-984.2849731445315	87.31029510498048	476.8711547851564	-893.5836181640627	72.1797561645508	367.3646850585938	-854.3841552734377	107.9449539184571	396.4972534179689	-866.6496582031252	144.8120574951172	361.5413208007813	-896.7833251953127	166.595458984375	224.049057006836	-863.434020996094	183.6348724365235	249.1168060302735	-945.6572875976565	154.5950317382813	145.3699035644532	-926.1473388671877	317.5333251953126	291.2738952636719	-918.570983886719	309.7332458496094	295.5368041992188	-871.1712646484377	294.2247924804688	250.8665008544922	-827.0452270507815	nan	nan	nan	
